<svg id="visual" viewBox="0 0 6300 4200" width="6300" height="4200" xmlns="http://www.w3.org/2000/svg" xmlns:xlink="http://www.w3.org/1999/xlink" version="1.1"><rect x="0" y="0" width="6300" height="4200" fill="#373772"></rect><path d="M0 2982L105 2998.3C210 3014.7 420 3047.3 630 3027.5C840 3007.7 1050 2935.3 1260 2847.2C1470 2759 1680 2655 1890 2685.5C2100 2716 2310 2881 2520 2942.3C2730 3003.7 2940 2961.3 3150 2893.5C3360 2825.7 3570 2732.3 3780 2772C3990 2811.7 4200 2984.3 4410 3075.5C4620 3166.7 4830 3176.3 5040 3083C5250 2989.7 5460 2793.3 5670 2724.8C5880 2656.3 6090 2715.7 6195 2745.3L6300 2775L6300 4201L6195 4201C6090 4201 5880 4201 5670 4201C5460 4201 5250 4201 5040 4201C4830 4201 4620 4201 4410 4201C4200 4201 3990 4201 3780 4201C3570 4201 3360 4201 3150 4201C2940 4201 2730 4201 2520 4201C2310 4201 2100 4201 1890 4201C1680 4201 1470 4201 1260 4201C1050 4201 840 4201 630 4201C420 4201 210 4201 105 4201L0 4201Z" fill="#5fa058"></path><path d="M0 3180L105 3178C210 3176 420 3172 630 3218.5C840 3265 1050 3362 1260 3403.7C1470 3445.3 1680 3431.7 1890 3429.3C2100 3427 2310 3436 2520 3431.5C2730 3427 2940 3409 3150 3363.8C3360 3318.7 3570 3246.3 3780 3203C3990 3159.7 4200 3145.3 4410 3101.2C4620 3057 4830 2983 5040 2941.3C5250 2899.7 5460 2890.3 5670 2941.2C5880 2992 6090 3103 6195 3158.5L6300 3214L6300 4201L6195 4201C6090 4201 5880 4201 5670 4201C5460 4201 5250 4201 5040 4201C4830 4201 4620 4201 4410 4201C4200 4201 3990 4201 3780 4201C3570 4201 3360 4201 3150 4201C2940 4201 2730 4201 2520 4201C2310 4201 2100 4201 1890 4201C1680 4201 1470 4201 1260 4201C1050 4201 840 4201 630 4201C420 4201 210 4201 105 4201L0 4201Z" fill="#4e9544"></path><path d="M0 3655L105 3640.3C210 3625.7 420 3596.3 630 3524.7C840 3453 1050 3339 1260 3310.7C1470 3282.3 1680 3339.7 1890 3347.2C2100 3354.7 2310 3312.3 2520 3315.8C2730 3319.3 2940 3368.7 3150 3423.7C3360 3478.7 3570 3539.3 3780 3574.8C3990 3610.3 4200 3620.7 4410 3606.3C4620 3592 4830 3553 5040 3498.3C5250 3443.7 5460 3373.3 5670 3373C5880 3372.7 6090 3442.3 6195 3477.2L6300 3512L6300 4201L6195 4201C6090 4201 5880 4201 5670 4201C5460 4201 5250 4201 5040 4201C4830 4201 4620 4201 4410 4201C4200 4201 3990 4201 3780 4201C3570 4201 3360 4201 3150 4201C2940 4201 2730 4201 2520 4201C2310 4201 2100 4201 1890 4201C1680 4201 1470 4201 1260 4201C1050 4201 840 4201 630 4201C420 4201 210 4201 105 4201L0 4201Z" fill="#3d8a30"></path><path d="M0 3859L105 3853.5C210 3848 420 3837 630 3825C840 3813 1050 3800 1260 3811.3C1470 3822.7 1680 3858.3 1890 3873.7C2100 3889 2310 3884 2520 3888.8C2730 3893.7 2940 3908.3 3150 3862.2C3360 3816 3570 3709 3780 3694.2C3990 3679.3 4200 3756.7 4410 3809.7C4620 3862.7 4830 3891.3 5040 3907.2C5250 3923 5460 3926 5670 3890.7C5880 3855.3 6090 3781.7 6195 3744.8L6300 3708L6300 4201L6195 4201C6090 4201 5880 4201 5670 4201C5460 4201 5250 4201 5040 4201C4830 4201 4620 4201 4410 4201C4200 4201 3990 4201 3780 4201C3570 4201 3360 4201 3150 4201C2940 4201 2730 4201 2520 4201C2310 4201 2100 4201 1890 4201C1680 4201 1470 4201 1260 4201C1050 4201 840 4201 630 4201C420 4201 210 4201 105 4201L0 4201Z" fill="#2b7f18"></path></svg>